<?xml version="1.0" encoding="UTF-8" standalone="no"?>
<!DOCTYPE svg PUBLIC "-//W3C//DTD SVG 1.1//EN" "http://www.w3.org/Graphics/SVG/1.1/DTD/svg11.dtd">
<svg width="100%" height="100%" viewBox="0 0 280 80" version="1.1" xmlns="http://www.w3.org/2000/svg" xmlns:xlink="http://www.w3.org/1999/xlink" xml:space="preserve" style="fill-rule:evenodd;clip-rule:evenodd;stroke-linejoin:round;stroke-miterlimit:1.41421;">
    <g transform="matrix(1.04478,0,0,1.04478,-5.57463,-8.58209)">
        <circle cx="57.5" cy="46.5" r="33.5" style="fill:rgb(249,168,37);"/>
    </g>
    <g transform="matrix(0.891542,0,0,0.891542,3.23632,-1.45672)">
        <circle cx="57.5" cy="46.5" r="33.5" style="fill:rgb(221,44,0);"/>
    </g>
    <g transform="matrix(0.891542,0,0,0.891542,3.23632,-1.45672)">
        <path d="M61.164,14.047C64.577,14.047 66.581,14.144 69.539,15.094C72.582,16.072 75.425,18.553 77.914,20.328C80.857,22.427 82.179,25.859 84.195,28.703C85.624,30.717 87.248,31.739 88.383,33.938C90.091,37.246 90.448,41.876 90.477,46.5C90.516,52.92 89.144,58.288 86.289,63.25C85.125,65.273 82.677,66.665 81.055,68.484C79.482,70.248 78.746,72.451 76.867,73.719C74.868,75.068 71.763,75.948 69.539,76.859C66.066,78.283 64.332,80 60.117,80C58.076,80 55.664,79.283 53.836,78.953C52.008,78.623 48.147,78.68 46.508,77.906C44.274,76.851 42.221,75.059 40.227,73.719C37.647,71.985 34.799,71.069 32.898,68.484C31.936,67.176 31.614,64.691 30.805,63.25C29.403,60.755 27.408,58.828 26.617,55.922C25.853,53.115 24.523,49.547 24.523,46.5C24.523,43.773 24.197,41.412 25.57,39.172C26.673,37.373 28.875,33.548 29.758,31.844C31.679,28.134 31.755,26.48 34.992,23.469C38.232,20.455 42.353,18.093 46.508,16.141C48.98,14.979 51.208,14.586 53.836,14.047C54.948,13.819 59.963,14.047 61.164,14.047Z" style="fill:rgb(255,213,79);"/>
    </g>
    <g transform="matrix(0.341423,0,0,0.341423,13.3891,-0.765259)">
        <path d="M125.316,90.656C125.316,76.833 136.522,65.628 150.344,65.628C164.167,65.628 175.372,76.833 175.372,90.656C175.372,104.478 164.167,115.683 150.344,115.683C136.522,115.683 125.316,104.478 125.316,90.656Z" style="fill:rgb(226,35,41);fill-rule:nonzero;"/>
    </g>
    <g transform="matrix(0.341423,0,0,0.341423,13.3891,-0.765259)">
        <path d="M125.316,150.609C125.316,136.787 136.522,125.581 150.344,125.581C164.167,125.581 175.372,136.787 175.372,150.609C175.372,164.432 164.167,175.637 150.344,175.637C136.522,175.637 125.316,164.432 125.316,150.609Z" style="fill:rgb(226,35,41);fill-rule:nonzero;"/>
    </g>
    <g transform="matrix(0.341423,0,0,0.341423,13.3891,-0.765259)">
        <path d="M65.363,150.609C65.363,136.787 76.568,125.581 90.391,125.581C104.214,125.581 115.419,136.787 115.419,150.609C115.419,164.432 104.214,175.637 90.391,175.637C76.568,175.637 65.363,164.432 65.363,150.609Z" style="fill:rgb(226,35,41);fill-rule:nonzero;"/>
    </g>
    <g transform="matrix(0.341423,0,0,0.341423,13.3891,-0.765259)">
        <path d="M65.363,90.657C65.363,76.834 76.568,65.629 90.391,65.629C104.214,65.629 115.419,76.834 115.419,90.657C115.419,104.479 104.214,115.684 90.391,115.684C76.568,115.684 65.363,104.479 65.363,90.657Z" style="fill:rgb(226,35,41);fill-rule:nonzero;"/>
    </g>
    <g transform="matrix(1.65742,0,0,1.41793,-86.417,-32.1911)">
        <path d="M124.787,61.892L124.787,69.292L116.387,69.292L116.387,38.492L123.287,38.492L123.787,39.992L124.037,39.992C124.971,38.626 126.804,37.942 129.537,37.942C132.271,37.942 134.196,38.892 135.312,40.792C136.429,42.692 136.987,45.809 136.987,50.142C136.987,54.476 136.396,57.701 135.212,59.817C134.029,61.934 131.854,62.992 128.687,62.992C127.221,62.992 125.987,62.626 124.987,61.892L124.787,61.892ZM128.537,53.192C128.571,52.626 128.587,51.551 128.587,49.967C128.587,48.384 128.471,47.167 128.237,46.317C128.004,45.467 127.529,45.042 126.812,45.042C126.096,45.042 125.387,45.242 124.687,45.642L124.687,55.992C125.321,56.292 125.929,56.442 126.512,56.442C127.096,56.442 127.512,56.334 127.762,56.117C128.012,55.901 128.196,55.501 128.312,54.917C128.429,54.334 128.504,53.759 128.537,53.192Z" style="fill:rgb(226,35,41);fill-rule:nonzero;"/>
        <path d="M148.137,62.442L139.887,62.442L139.887,38.742L148.137,38.742L148.137,62.442ZM139.487,33.942C139.487,32.609 139.837,31.626 140.537,30.992C141.237,30.359 142.387,30.042 143.987,30.042C145.587,30.042 146.737,30.359 147.437,30.992C148.137,31.626 148.487,32.601 148.487,33.917C148.487,35.234 148.137,36.201 147.437,36.817C146.737,37.434 145.587,37.742 143.987,37.742C142.387,37.742 141.237,37.442 140.537,36.842C139.837,36.242 139.487,35.276 139.487,33.942Z" style="fill:rgb(226,35,41);fill-rule:nonzero;"/>
        <path d="M168.837,62.442L150.887,62.442L150.687,57.642L158.087,45.492L150.387,45.492L150.387,38.492L168.337,38.492L168.637,42.942L161.487,55.542L168.837,55.542L168.837,62.442Z" style="fill:rgb(226,35,41);fill-rule:nonzero;"/>
        <path d="M188.487,62.442L170.537,62.442L170.337,57.642L177.737,45.492L170.037,45.492L170.037,38.492L187.987,38.492L188.287,42.942L181.137,55.542L188.487,55.542L188.487,62.442Z" style="fill:rgb(226,35,41);fill-rule:nonzero;"/>
        <path d="M208.637,44.742L208.387,55.092C208.387,55.726 208.546,56.151 208.862,56.367C209.179,56.584 209.721,56.692 210.487,56.692L209.737,62.742C207.804,62.876 206.737,62.942 206.537,62.942C204.071,62.942 202.504,62.092 201.837,60.392L201.587,60.392C200.354,62.092 198.454,62.942 195.887,62.942C193.921,62.942 192.412,62.309 191.362,61.042C190.312,59.776 189.787,58.042 189.787,55.842C189.787,53.076 190.646,51.159 192.362,50.092C194.079,49.026 196.787,48.326 200.487,47.992L200.487,46.792C200.487,45.859 200.021,45.392 199.087,45.392C197.487,45.392 194.987,45.876 191.587,46.842L190.337,39.542C194.604,38.442 198.154,37.892 200.987,37.892C203.821,37.892 205.804,38.442 206.937,39.542C208.071,40.642 208.637,42.376 208.637,44.742ZM198.987,57.092C200.221,57.092 200.837,56.442 200.837,55.142L200.837,52.692C199.604,52.859 198.729,53.117 198.212,53.467C197.696,53.817 197.437,54.409 197.437,55.242C197.437,56.476 197.954,57.092 198.987,57.092Z" style="fill:rgb(226,35,41);fill-rule:nonzero;"/>
    </g>
</svg>
